<svg height="100%" style="max-width:100%;" viewBox="0 0 110 28" fill="none" xmlns="http://www.w3.org/2000/svg">
<path d="M38.2979 17.8518L36.0733 11.0836C35.7903 10.2268 34.9963 9.65299 34.1002 9.65299H32.6853L36.6157 20.3751H39.9408L43.9104 9.65299H42.4955C41.5994 9.65299 40.7976 10.2268 40.5225 11.0836L38.2979 17.8518Z" fill="#050B24"/>
<path d="M45.412 6.90171H48.5012L53.3042 18.0876L52.243 18.1819L57.0223 6.90171H60.1116V20.3672H57.3917V9.12631L58.3586 9.28352L53.8072 20.375H51.7399L47.1492 9.28352L48.1318 9.12631V20.3672H45.412V6.90171Z" fill="#050B24"/>
<path d="M67.6894 20.4929C66.864 20.4929 66.1015 20.3672 65.394 20.1078C64.6866 19.8484 64.0734 19.4789 63.5625 18.9994C63.0515 18.5199 62.6428 17.9461 62.3598 17.2936C62.0689 16.6412 61.9274 15.9023 61.9274 15.0926C61.9274 14.2829 62.0768 13.4969 62.3834 12.813C62.6821 12.1291 63.0987 11.5474 63.6175 11.06C64.1363 10.5727 64.7416 10.1954 65.4176 9.92809C66.1015 9.66083 66.8168 9.53506 67.5793 9.53506C68.3418 9.53506 68.8449 9.62153 69.403 9.79447C69.9611 9.9674 70.4564 10.2111 70.8887 10.5255C71.321 10.8399 71.6591 11.2173 71.9027 11.6575C72.1464 12.0977 72.2722 12.5693 72.2722 13.0881C72.2722 13.6069 72.0757 14.3301 71.6826 14.7782C71.2896 15.2184 70.7786 15.5721 70.1419 15.8315C69.5052 16.0909 68.8056 16.2717 68.051 16.3739C67.2885 16.4761 66.5496 16.5154 65.8107 16.4918C65.7085 16.4761 65.5748 16.4761 65.4176 16.4761C65.2604 16.4761 65.1189 16.4761 64.9931 16.4604C64.8674 16.4447 64.7888 16.4447 64.7495 16.4604C64.8281 16.822 65.0089 17.1443 65.2918 17.4351C65.5748 17.726 65.9286 17.9539 66.3609 18.119C66.7933 18.2841 67.2492 18.3705 67.7365 18.3705C68.2239 18.3705 68.5776 18.2998 68.9785 18.1504C69.3873 18.0011 69.7568 17.8046 70.0869 17.553C70.4249 17.3015 70.7 17.0264 70.9123 16.7355L72.7831 18.1426C72.3744 18.6692 71.8949 19.1173 71.3525 19.471C70.8101 19.8326 70.2363 20.092 69.6153 20.265C68.9943 20.4301 68.3575 20.5165 67.6894 20.5165V20.4929ZM65.8971 14.5345C66.3059 14.5345 66.7304 14.5109 67.1706 14.4637C67.6108 14.4166 68.0117 14.3458 68.3733 14.2436C68.7427 14.1415 69.0336 13.9921 69.2615 13.7877C69.4895 13.5912 69.5995 13.3318 69.5995 13.0252C69.5995 12.7187 69.5131 12.5379 69.348 12.3413C69.1829 12.1448 68.9471 11.9797 68.6562 11.8618C68.3575 11.7361 68.0274 11.681 67.6501 11.681C67.0605 11.681 66.5338 11.8147 66.0779 12.0898C65.622 12.3571 65.2683 12.7108 65.0089 13.1431C64.7495 13.5755 64.608 14.0235 64.5844 14.4873C64.7259 14.5031 64.9145 14.5109 65.1504 14.5266C65.3862 14.5424 65.6377 14.5424 65.8893 14.5424L65.8971 14.5345Z" fill="#050B24"/>
<path d="M78.6235 20.493C77.6173 20.493 76.8233 20.1943 76.2417 19.5968C75.66 18.9994 75.3613 18.1505 75.3613 17.0578V11.8697H73.7026V9.6687H80.4707V11.8697H78.1204V17.1364C78.1204 17.4744 78.2147 17.7181 78.4112 17.8911C78.6077 18.0561 78.82 18.1426 79.0637 18.1426C79.3073 18.1426 79.3624 18.119 79.496 18.064C79.6296 18.009 79.7633 17.9382 79.889 17.836L80.8559 19.7069C80.5179 19.9742 80.172 20.1785 79.8183 20.3043C79.4567 20.4301 79.0558 20.5008 78.6235 20.5008V20.493ZM74.5201 10.5255V9.67657C74.8031 9.67657 75.0232 9.5901 75.1883 9.42502C75.3455 9.25995 75.432 9.03199 75.432 8.749V7.03535H78.1125V8.32452C78.1125 8.50531 78.0653 8.69397 77.9789 8.88263C77.8924 9.07915 77.7588 9.24423 77.5858 9.38572C77.4129 9.52721 77.2164 9.62155 76.9963 9.67657L74.528 10.5255H74.5201Z" fill="#050B24"/>
<path d="M86.901 20.493C85.9734 20.493 85.148 20.2571 84.4248 19.7855C83.7016 19.3138 83.1278 18.6693 82.7191 17.836C82.3103 17.0028 82.0981 16.0673 82.0981 15.014C82.0981 13.9607 82.3024 13.0017 82.7191 12.1763C83.1278 11.3509 83.7016 10.7063 84.4248 10.2347C85.148 9.76303 85.9813 9.5272 86.901 9.5272C87.8207 9.5272 88.4888 9.7473 89.1256 10.1796C89.7623 10.6198 90.2103 11.2173 90.4698 11.9955V9.66083H93.2053V20.3436H91.9319C91.4838 20.3436 91.1222 20.21 90.8628 19.9506C90.5955 19.6833 90.4698 19.3453 90.4698 18.9208V18.0168C90.2025 18.7872 89.7466 19.3924 89.1177 19.8326C88.4888 20.2729 87.7499 20.4851 86.901 20.4851V20.493ZM87.6713 18.1269C88.1744 18.1269 88.6303 18.009 89.047 17.7731C89.4636 17.5373 89.8016 17.1836 90.0689 16.7119C90.3361 16.2403 90.4619 15.6822 90.4619 15.0219C90.4619 14.3616 90.3283 13.7877 90.0689 13.3318C89.8016 12.8759 89.4636 12.5222 89.0391 12.2785C88.6146 12.0348 88.1587 11.909 87.6713 11.909C87.184 11.909 86.728 12.0348 86.3036 12.2785C85.8791 12.5222 85.5332 12.8759 85.2738 13.3318C85.0065 13.7877 84.8808 14.3537 84.8808 15.0219C84.8808 15.69 85.0144 16.2403 85.2738 16.7119C85.5411 17.1836 85.8869 17.5373 86.3114 17.7731C86.7438 18.009 87.1918 18.1269 87.6713 18.1269Z" fill="#050B24"/>
<path d="M95.87 17.4901V6.09206H98.5899V17.2936C98.5899 17.5923 98.6763 17.8124 98.8414 17.9618C99.0065 18.1111 99.2109 18.1819 99.4388 18.1819C99.6668 18.1819 99.7454 18.1583 99.8633 18.1033L100.366 20.1471C99.9183 20.375 99.4074 20.493 98.8414 20.493C98.2754 20.493 97.8824 20.3908 97.4343 20.1942C96.9863 19.9977 96.6089 19.6754 96.3181 19.2431C96.0194 18.8029 95.8779 18.2212 95.8779 17.4901H95.87Z" fill="#050B24"/>
<path d="M11.9169 14.5974C11.9169 11.8697 9.70017 9.65301 6.97249 9.65301H6.48512V20.3986H11.9169V14.5974ZM5.43178 4.94441C5.43178 2.21673 3.21505 0 0.487365 0H0V20.3986H5.43178V4.94441ZM24.8871 7.88434C24.8871 5.15666 22.6704 2.93992 19.9427 2.93992H19.4554V20.3986H24.8871V7.88434ZM13.4576 9.65301H12.9702V20.3986H18.402V14.5974C18.402 11.8697 16.1853 9.65301 13.4576 9.65301ZM17.5924 24.9107C17.5216 24.7849 17.4509 24.667 17.3723 24.557C17.3565 24.5334 17.3408 24.5098 17.3251 24.4784C17.3172 24.4705 17.3094 24.4548 17.3015 24.4391C16.146 22.7647 14.228 21.7507 12.1763 21.7507H0.00785883V28H18.4099V27.9764C18.4099 26.9074 18.1426 25.9012 17.6631 25.0208L17.6002 24.9029L17.5924 24.9107ZM19.4554 28H24.8871V22.5682H19.4554V28Z" fill="#00B7D6"/>
</svg>
